<?xml version="1.0" standalone="no"?><!DOCTYPE svg PUBLIC "-//W3C//DTD SVG 1.1//EN" "http://www.w3.org/Graphics/SVG/1.1/DTD/svg11.dtd"><svg t="1576587116272" class="icon" viewBox="0 0 1024 1024" version="1.1" xmlns="http://www.w3.org/2000/svg" p-id="1263" xmlns:xlink="http://www.w3.org/1999/xlink" width="200" height="200"><defs><style type="text/css"></style></defs><path d="M-664.554667 249.408" p-id="1264"></path><path d="M-664.554667 249.408" p-id="1265"></path><path d="M317.738667 590.122667c41.749333 0 78.08-36.330667 78.08-78.08s-36.330667-78.08-78.08-78.08-76.266667 36.330667-76.266667 78.08S275.989333 590.122667 317.738667 590.122667zM537.429333 433.962667 938.666667 433.962667l0 156.138667-78.08 0 0 154.304-154.304 0L706.282667 590.08l-168.832 0c-30.869333 90.794667-118.016 154.304-219.690667 154.304C188.821333 744.405333 85.333333 640.896 85.333333 512s103.488-232.405333 232.405333-232.405333c101.674667 0 188.821333 63.552 219.690667 154.304L537.429333 433.962667z" p-id="1266"></path></svg>